<svg xmlns="http://www.w3.org/2000/svg" xmlns:xlink="http://www.w3.org/1999/xlink" width="1080" zoomAndPan="magnify" viewBox="0 0 810 809.999993" height="1080" preserveAspectRatio="xMidYMid meet" version="1.0"><defs><clipPath id="8d850c81a1"><path d="M 1 88 L 809 88 L 809 783 L 1 783 Z M 1 88 " clip-rule="nonzero"/></clipPath><clipPath id="2c5ac4e2ef"><path d="M 149.664062 -139.425781 L 813.097656 173.433594 L 498.316406 840.933594 L -165.113281 528.074219 Z M 149.664062 -139.425781 " clip-rule="nonzero"/></clipPath><clipPath id="b0c43ce0d9"><path d="M 149.664062 -139.425781 L 813.097656 173.433594 L 498.316406 840.933594 L -165.113281 528.074219 Z M 149.664062 -139.425781 " clip-rule="nonzero"/></clipPath><clipPath id="deb28eb356"><path d="M 149.664062 -139.425781 L 813.097656 173.433594 L 498.316406 840.933594 L -165.113281 528.074219 Z M 149.664062 -139.425781 " clip-rule="nonzero"/></clipPath><clipPath id="3462549bbc"><path d="M 16 100 L 794 100 L 794 619 L 16 619 Z M 16 100 " clip-rule="nonzero"/></clipPath><clipPath id="f3bcfeb094"><path d="M 149.664062 -139.425781 L 813.097656 173.433594 L 498.316406 840.933594 L -165.113281 528.074219 Z M 149.664062 -139.425781 " clip-rule="nonzero"/></clipPath><clipPath id="5c66186680"><path d="M 149.664062 -139.425781 L 813.097656 173.433594 L 498.316406 840.933594 L -165.113281 528.074219 Z M 149.664062 -139.425781 " clip-rule="nonzero"/></clipPath><clipPath id="e7456b5f39"><path d="M 149.664062 -139.425781 L 813.097656 173.433594 L 498.316406 840.933594 L -165.113281 528.074219 Z M 149.664062 -139.425781 " clip-rule="nonzero"/></clipPath><clipPath id="fe0f36bde0"><path d="M 288 525 L 535 525 L 535 772 L 288 772 Z M 288 525 " clip-rule="nonzero"/></clipPath><clipPath id="f738c19f12"><path d="M 149.664062 -139.425781 L 813.097656 173.433594 L 498.316406 840.933594 L -165.113281 528.074219 Z M 149.664062 -139.425781 " clip-rule="nonzero"/></clipPath><clipPath id="10bad5c6c5"><path d="M 149.664062 -139.425781 L 813.097656 173.433594 L 498.316406 840.933594 L -165.113281 528.074219 Z M 149.664062 -139.425781 " clip-rule="nonzero"/></clipPath><clipPath id="14b74231e9"><path d="M 149.664062 -139.425781 L 813.097656 173.433594 L 498.316406 840.933594 L -165.113281 528.074219 Z M 149.664062 -139.425781 " clip-rule="nonzero"/></clipPath></defs><g clip-path="url(#8d850c81a1)"><g clip-path="url(#2c5ac4e2ef)"><g clip-path="url(#b0c43ce0d9)"><g clip-path="url(#deb28eb356)"><path fill="#2383ad" d="M 537.03125 696.675781 C 532.300781 705.773438 528.234375 716.050781 522.625 724.097656 C 460.914062 812.324219 326.75 798.695312 286.246094 697.75 C 286.054688 697.265625 285.777344 696.832031 285.414062 696.457031 C 285.054688 696.082031 284.636719 695.785156 284.160156 695.574219 C 283.679688 695.359375 283.179688 695.246094 282.660156 695.226562 C 282.136719 695.207031 281.628906 695.285156 281.136719 695.464844 L 259.183594 703.5 C 258.972656 703.578125 258.757812 703.617188 258.53125 703.613281 C 258.308594 703.609375 258.089844 703.570312 257.882812 703.484375 C 257.671875 703.402344 257.488281 703.285156 257.320312 703.132812 C 257.15625 702.980469 257.023438 702.804688 256.925781 702.601562 L 1.898438 183.457031 C 1.703125 183.054688 1.59375 182.628906 1.566406 182.183594 C 1.542969 181.738281 1.601562 181.304688 1.75 180.882812 C 1.898438 180.460938 2.121094 180.082031 2.417969 179.75 C 2.71875 179.414062 3.066406 179.152344 3.472656 178.957031 C 50.019531 156.742188 100.085938 138.65625 149.757812 124.78125 C 339.261719 71.882812 541.472656 76.324219 728.113281 141.773438 C 731.28125 142.886719 738.484375 144.71875 743.398438 146.972656 C 751.179688 150.535156 760.890625 153.234375 766.085938 155.558594 C 774.433594 159.269531 781.214844 162.050781 786.4375 163.910156 C 794.535156 166.753906 800.671875 169.820312 807.632812 173.058594 C 807.910156 173.1875 808.148438 173.367188 808.351562 173.589844 C 808.558594 173.8125 808.710938 174.070312 808.816406 174.351562 C 808.917969 174.636719 808.964844 174.929688 808.949219 175.234375 C 808.9375 175.535156 808.863281 175.820312 808.738281 176.09375 C 740.203125 321.363281 671.730469 466.605469 603.316406 611.832031 C 603.210938 612.050781 601.644531 615.925781 598.613281 623.457031 C 596.4375 628.832031 592.949219 633.90625 590.820312 638.417969 C 580.929688 659.394531 571.097656 680.089844 561.328125 700.507812 C 561.203125 700.773438 561.03125 701.011719 560.8125 701.214844 C 560.59375 701.414062 560.347656 701.570312 560.070312 701.675781 C 559.789062 701.785156 559.5 701.835938 559.203125 701.832031 C 558.902344 701.828125 558.617188 701.765625 558.339844 701.652344 L 541.878906 694.90625 C 539.722656 694.015625 538.109375 694.605469 537.03125 696.675781 Z M 537.03125 696.675781 " fill-opacity="1" fill-rule="nonzero"/></g></g></g></g><g clip-path="url(#3462549bbc)"><g clip-path="url(#f3bcfeb094)"><g clip-path="url(#5c66186680)"><g clip-path="url(#e7456b5f39)"><path fill="#c5eef9" d="M 536.769531 598.222656 C 508.5 526.902344 426.660156 494.394531 357.210938 524.917969 C 324.71875 539.179688 301.183594 563.5625 286.601562 598.066406 C 286.375 598.59375 286.042969 599.046875 285.609375 599.425781 C 285.171875 599.808594 284.679688 600.074219 284.121094 600.234375 C 265.71875 605.40625 247.671875 611.609375 229.980469 618.847656 C 229.726562 618.957031 229.464844 618.964844 229.203125 618.863281 C 228.941406 618.765625 228.746094 618.585938 228.621094 618.332031 L 16.53125 186.640625 C 16.234375 186.046875 16.390625 185.613281 17 185.335938 C 263.074219 74.730469 538.566406 72.1875 787.730469 176.839844 C 788.789062 177.28125 790.667969 178.210938 793.367188 179.625 C 793.886719 179.894531 794.015625 180.304688 793.761719 180.84375 L 588.550781 616.003906 C 588.300781 616.535156 587.902344 616.691406 587.355469 616.476562 C 571.535156 610.226562 555.433594 604.828125 539.054688 600.273438 C 538.535156 600.128906 538.078125 599.875 537.675781 599.515625 C 537.273438 599.15625 536.972656 598.722656 536.769531 598.222656 Z M 536.769531 598.222656 " fill-opacity="1" fill-rule="nonzero"/></g></g></g></g><g clip-path="url(#fe0f36bde0)"><g clip-path="url(#f738c19f12)"><g clip-path="url(#10bad5c6c5)"><g clip-path="url(#14b74231e9)"><path fill="#8fcaea" d="M 522.824219 700.605469 C 521.964844 702.429688 521.0625 704.230469 520.113281 706.007812 C 519.167969 707.785156 518.175781 709.539062 517.140625 711.269531 C 516.109375 713 515.03125 714.703125 513.914062 716.378906 C 512.796875 718.054688 511.640625 719.703125 510.441406 721.324219 C 509.242188 722.941406 508.007812 724.53125 506.730469 726.089844 C 505.453125 727.648438 504.140625 729.175781 502.789062 730.671875 C 501.4375 732.167969 500.050781 733.625 498.628906 735.054688 C 497.207031 736.480469 495.75 737.871094 494.257812 739.226562 C 492.769531 740.582031 491.246094 741.898438 489.6875 743.179688 C 488.132812 744.457031 486.546875 745.699219 484.929688 746.902344 C 483.316406 748.105469 481.667969 749.265625 479.996094 750.386719 C 478.324219 751.507812 476.625 752.589844 474.898438 753.628906 C 473.171875 754.664062 471.417969 755.660156 469.644531 756.613281 C 467.871094 757.566406 466.070312 758.472656 464.253906 759.335938 C 462.433594 760.199219 460.59375 761.019531 458.734375 761.792969 C 456.875 762.566406 454.996094 763.292969 453.101562 763.976562 C 451.203125 764.65625 449.292969 765.289062 447.367188 765.878906 C 445.441406 766.464844 443.5 767.003906 441.546875 767.496094 C 439.59375 767.988281 437.632812 768.433594 435.65625 768.828125 C 433.683594 769.226562 431.699219 769.574219 429.707031 769.871094 C 427.714844 770.167969 425.71875 770.417969 423.714844 770.617188 C 421.710938 770.820312 419.703125 770.96875 417.691406 771.070312 C 415.679688 771.171875 413.667969 771.226562 411.652344 771.230469 C 409.640625 771.230469 407.625 771.183594 405.617188 771.089844 C 403.605469 770.992188 401.597656 770.847656 399.589844 770.652344 C 397.585938 770.457031 395.589844 770.214844 393.597656 769.921875 C 391.605469 769.628906 389.621094 769.285156 387.644531 768.898438 C 385.671875 768.507812 383.707031 768.066406 381.75 767.582031 C 379.796875 767.09375 377.855469 766.558594 375.929688 765.976562 C 374 765.394531 372.089844 764.765625 370.191406 764.089844 C 368.296875 763.414062 366.417969 762.691406 364.554688 761.921875 C 362.695312 761.15625 360.855469 760.339844 359.03125 759.484375 C 357.210938 758.625 355.414062 757.722656 353.636719 756.773438 C 351.859375 755.828125 350.105469 754.835938 348.378906 753.804688 C 346.648438 752.769531 344.949219 751.695312 343.273438 750.578125 C 341.597656 749.460938 339.949219 748.304688 338.332031 747.105469 C 336.714844 745.90625 335.125 744.671875 333.566406 743.394531 C 332.011719 742.117188 330.484375 740.804688 328.992188 739.453125 C 327.496094 738.105469 326.039062 736.71875 324.613281 735.292969 C 323.1875 733.871094 321.796875 732.414062 320.445312 730.925781 C 319.089844 729.433594 317.773438 727.910156 316.496094 726.355469 C 315.21875 724.800781 313.976562 723.214844 312.777344 721.597656 C 311.574219 719.980469 310.414062 718.335938 309.292969 716.660156 C 308.175781 714.988281 307.09375 713.289062 306.058594 711.5625 C 305.023438 709.835938 304.027344 708.085938 303.078125 706.308594 C 302.125 704.535156 301.21875 702.734375 300.355469 700.914062 C 299.496094 699.09375 298.675781 697.253906 297.90625 695.394531 C 297.132812 693.535156 296.40625 691.65625 295.726562 689.761719 C 295.046875 687.867188 294.414062 685.953125 293.828125 684.027344 C 293.242188 682.101562 292.703125 680.160156 292.210938 678.207031 C 291.71875 676.253906 291.277344 674.289062 290.882812 672.3125 C 290.488281 670.335938 290.140625 668.351562 289.84375 666.359375 C 289.546875 664.367188 289.300781 662.371094 289.101562 660.367188 C 288.902344 658.359375 288.75 656.351562 288.648438 654.339844 C 288.550781 652.328125 288.5 650.316406 288.496094 648.300781 C 288.496094 646.285156 288.542969 644.273438 288.640625 642.261719 C 288.738281 640.246094 288.882812 638.238281 289.078125 636.234375 C 289.273438 634.230469 289.519531 632.230469 289.8125 630.234375 C 290.105469 628.242188 290.449219 626.257812 290.839844 624.28125 C 291.230469 622.304688 291.671875 620.339844 292.15625 618.382812 C 292.644531 616.429688 293.179688 614.488281 293.761719 612.558594 C 294.347656 610.628906 294.976562 608.71875 295.652344 606.820312 C 296.328125 604.921875 297.050781 603.042969 297.820312 601.179688 C 298.589844 599.316406 299.40625 597.476562 300.265625 595.652344 C 301.125 593.832031 302.027344 592.03125 302.976562 590.25 C 303.921875 588.472656 304.914062 586.71875 305.945312 584.992188 C 306.980469 583.261719 308.054688 581.558594 309.171875 579.882812 C 310.289062 578.203125 311.449219 576.558594 312.648438 574.9375 C 313.84375 573.316406 315.082031 571.726562 316.359375 570.167969 C 317.632812 568.609375 318.949219 567.082031 320.300781 565.589844 C 321.648438 564.09375 323.035156 562.632812 324.460938 561.207031 C 325.882812 559.78125 327.339844 558.390625 328.832031 557.035156 C 330.320312 555.679688 331.84375 554.363281 333.398438 553.082031 C 334.957031 551.800781 336.542969 550.558594 338.15625 549.359375 C 339.773438 548.15625 341.417969 546.992188 343.09375 545.871094 C 344.765625 544.75 346.464844 543.671875 348.191406 542.632812 C 349.917969 541.59375 351.667969 540.597656 353.445312 539.648438 C 355.21875 538.695312 357.015625 537.785156 358.835938 536.921875 C 360.65625 536.058594 362.496094 535.238281 364.355469 534.464844 C 366.214844 533.691406 368.09375 532.964844 369.988281 532.285156 C 371.882812 531.601562 373.796875 530.96875 375.722656 530.382812 C 377.648438 529.792969 379.589844 529.253906 381.542969 528.761719 C 383.492188 528.269531 385.457031 527.824219 387.433594 527.429688 C 389.40625 527.035156 391.390625 526.6875 393.382812 526.386719 C 395.375 526.089844 397.371094 525.839844 399.375 525.640625 C 401.378906 525.441406 403.386719 525.289062 405.398438 525.1875 C 407.410156 525.085938 409.421875 525.035156 411.4375 525.03125 C 413.449219 525.027344 415.460938 525.074219 417.472656 525.171875 C 419.484375 525.265625 421.492188 525.414062 423.496094 525.605469 C 425.5 525.800781 427.5 526.046875 429.492188 526.339844 C 431.484375 526.632812 433.46875 526.972656 435.445312 527.363281 C 437.417969 527.753906 439.382812 528.191406 441.335938 528.679688 C 443.292969 529.164062 445.230469 529.699219 447.160156 530.28125 C 449.085938 530.863281 451 531.492188 452.894531 532.167969 C 454.792969 532.84375 456.671875 533.566406 458.53125 534.335938 C 460.394531 535.105469 462.234375 535.917969 464.054688 536.777344 C 465.878906 537.636719 467.675781 538.539062 469.453125 539.484375 C 471.230469 540.433594 472.980469 541.421875 474.710938 542.457031 C 476.4375 543.488281 478.140625 544.566406 479.816406 545.683594 C 481.492188 546.800781 483.136719 547.957031 484.757812 549.15625 C 486.375 550.351562 487.964844 551.589844 489.519531 552.863281 C 491.078125 554.140625 492.605469 555.453125 494.097656 556.804688 C 495.589844 558.15625 497.050781 559.542969 498.476562 560.964844 C 499.902344 562.386719 501.289062 563.84375 502.644531 565.335938 C 503.996094 566.824219 505.3125 568.347656 506.59375 569.90625 C 507.871094 571.460938 509.113281 573.046875 510.3125 574.664062 C 511.515625 576.28125 512.675781 577.925781 513.792969 579.597656 C 514.914062 581.269531 515.992188 582.972656 517.03125 584.699219 C 518.066406 586.425781 519.0625 588.175781 520.011719 589.949219 C 520.960938 591.726562 521.871094 593.523438 522.730469 595.34375 C 523.59375 597.164062 524.410156 599.003906 525.183594 600.863281 C 525.957031 602.722656 526.683594 604.601562 527.363281 606.5 C 528.042969 608.394531 528.675781 610.304688 529.261719 612.234375 C 529.847656 614.160156 530.386719 616.101562 530.878906 618.054688 C 531.371094 620.007812 531.8125 621.972656 532.207031 623.945312 C 532.601562 625.921875 532.945312 627.90625 533.246094 629.898438 C 533.542969 631.890625 533.789062 633.890625 533.988281 635.894531 C 534.1875 637.898438 534.339844 639.90625 534.4375 641.917969 C 534.539062 643.929688 534.589844 645.945312 534.59375 647.960938 C 534.59375 649.972656 534.546875 651.988281 534.449219 654 C 534.351562 656.011719 534.207031 658.019531 534.011719 660.027344 C 533.816406 662.03125 533.570312 664.03125 533.277344 666.023438 C 532.984375 668.015625 532.640625 670 532.25 671.976562 C 531.859375 673.953125 531.417969 675.917969 530.929688 677.875 C 530.441406 679.828125 529.90625 681.773438 529.324219 683.699219 C 528.742188 685.628906 528.113281 687.542969 527.4375 689.441406 C 526.757812 691.335938 526.035156 693.21875 525.265625 695.078125 C 524.5 696.941406 523.683594 698.785156 522.824219 700.605469 Z M 522.824219 700.605469 " fill-opacity="1" fill-rule="nonzero"/></g></g></g></g></svg>