<svg xmlns="http://www.w3.org/2000/svg" xmlns:xlink="http://www.w3.org/1999/xlink" width="1080" zoomAndPan="magnify" viewBox="0 0 810 809.999993" height="1080" preserveAspectRatio="xMidYMid meet" version="1.0"><defs><clipPath id="c52675665a"><path d="M 0 86 L 806 86 L 806 782 L 0 782 Z M 0 86 " clip-rule="nonzero"/></clipPath><clipPath id="21d5abab0f"><path d="M 140.800781 -136.179688 L 809.800781 164.589844 L 507.183594 837.695312 L -161.816406 536.921875 Z M 140.800781 -136.179688 " clip-rule="nonzero"/></clipPath><clipPath id="00907964f9"><path d="M 140.800781 -136.179688 L 809.800781 164.589844 L 507.183594 837.695312 L -161.816406 536.921875 Z M 140.800781 -136.179688 " clip-rule="nonzero"/></clipPath><clipPath id="0ec9cae0f1"><path d="M 140.800781 -136.179688 L 809.800781 164.589844 L 507.183594 837.695312 L -161.816406 536.921875 Z M 140.800781 -136.179688 " clip-rule="nonzero"/></clipPath><clipPath id="cbde315dc3"><path d="M 13 98 L 791 98 L 791 621 L 13 621 Z M 13 98 " clip-rule="nonzero"/></clipPath><clipPath id="7fec43ef0b"><path d="M 140.800781 -136.179688 L 809.800781 164.589844 L 507.183594 837.695312 L -161.816406 536.921875 Z M 140.800781 -136.179688 " clip-rule="nonzero"/></clipPath><clipPath id="6d6379b77d"><path d="M 140.800781 -136.179688 L 809.800781 164.589844 L 507.183594 837.695312 L -161.816406 536.921875 Z M 140.800781 -136.179688 " clip-rule="nonzero"/></clipPath><clipPath id="f348f79174"><path d="M 140.800781 -136.179688 L 809.800781 164.589844 L 507.183594 837.695312 L -161.816406 536.921875 Z M 140.800781 -136.179688 " clip-rule="nonzero"/></clipPath><clipPath id="e364e83844"><path d="M 293 523 L 540 523 L 540 770 L 293 770 Z M 293 523 " clip-rule="nonzero"/></clipPath><clipPath id="be319f51dc"><path d="M 140.800781 -136.179688 L 809.800781 164.589844 L 507.183594 837.695312 L -161.816406 536.921875 Z M 140.800781 -136.179688 " clip-rule="nonzero"/></clipPath><clipPath id="30a14bbf67"><path d="M 140.800781 -136.179688 L 809.800781 164.589844 L 507.183594 837.695312 L -161.816406 536.921875 Z M 140.800781 -136.179688 " clip-rule="nonzero"/></clipPath><clipPath id="8c412c4d91"><path d="M 140.800781 -136.179688 L 809.800781 164.589844 L 507.183594 837.695312 L -161.816406 536.921875 Z M 140.800781 -136.179688 " clip-rule="nonzero"/></clipPath></defs><g clip-path="url(#c52675665a)"><g clip-path="url(#21d5abab0f)"><g clip-path="url(#00907964f9)"><g clip-path="url(#0ec9cae0f1)"><path fill="#2383ad" d="M 543.273438 692.757812 C 538.707031 701.9375 534.832031 712.285156 529.367188 720.433594 C 469.265625 809.765625 334.878906 798.574219 292.550781 698.378906 C 292.347656 697.898438 292.0625 697.472656 291.695312 697.101562 C 291.328125 696.734375 290.902344 696.445312 290.421875 696.242188 C 289.941406 696.039062 289.441406 695.929688 288.917969 695.921875 C 288.394531 695.914062 287.886719 696 287.398438 696.1875 L 265.597656 704.621094 C 265.386719 704.703125 265.171875 704.746094 264.945312 704.746094 C 264.722656 704.746094 264.503906 704.707031 264.292969 704.628906 C 264.085938 704.550781 263.894531 704.4375 263.726562 704.289062 C 263.558594 704.136719 263.425781 703.964844 263.320312 703.765625 L -1.082031 189.332031 C -1.285156 188.933594 -1.402344 188.511719 -1.4375 188.066406 C -1.46875 187.617188 -1.417969 187.183594 -1.277344 186.757812 C -1.136719 186.335938 -0.921875 185.953125 -0.628906 185.613281 C -0.335938 185.273438 0.0078125 185.003906 0.40625 184.804688 C 46.546875 161.746094 96.277344 142.757812 145.6875 127.984375 C 334.199219 71.652344 536.457031 72.429688 724.253906 134.476562 C 727.445312 135.535156 734.679688 137.234375 739.632812 139.398438 C 747.480469 142.820312 757.234375 145.34375 762.472656 147.574219 C 770.886719 151.128906 777.71875 153.789062 782.972656 155.550781 C 791.121094 158.25 797.3125 161.203125 804.332031 164.316406 C 804.609375 164.441406 804.851562 164.613281 805.058594 164.832031 C 805.269531 165.054688 805.425781 165.304688 805.535156 165.589844 C 805.644531 165.871094 805.695312 166.164062 805.6875 166.464844 C 805.679688 166.765625 805.613281 167.054688 805.488281 167.332031 C 739.601562 313.816406 673.777344 460.28125 608.007812 606.722656 C 607.910156 606.945312 606.414062 610.847656 603.519531 618.433594 C 601.441406 623.847656 598.042969 628.984375 595.996094 633.535156 C 586.488281 654.6875 577.035156 675.558594 567.636719 696.144531 C 567.515625 696.417969 567.347656 696.65625 567.132812 696.863281 C 566.921875 697.066406 566.675781 697.226562 566.398438 697.339844 C 566.121094 697.449219 565.835938 697.507812 565.535156 697.507812 C 565.234375 697.507812 564.949219 697.457031 564.667969 697.347656 L 548.089844 690.898438 C 545.917969 690.046875 544.3125 690.667969 543.273438 692.757812 Z M 543.273438 692.757812 " fill-opacity="1" fill-rule="nonzero"/></g></g></g></g><g clip-path="url(#cbde315dc3)"><g clip-path="url(#7fec43ef0b)"><g clip-path="url(#6d6379b77d)"><g clip-path="url(#f348f79174)"><path fill="#c5eef9" d="M 541.222656 594.324219 C 511.667969 523.527344 429.253906 492.511719 360.367188 524.289062 C 328.140625 539.140625 305.050781 563.945312 291.097656 598.707031 C 290.878906 599.238281 290.554688 599.699219 290.128906 600.085938 C 289.699219 600.472656 289.210938 600.75 288.65625 600.917969 C 270.351562 606.421875 252.417969 612.953125 234.863281 620.511719 C 234.609375 620.628906 234.347656 620.636719 234.085938 620.542969 C 233.820312 620.449219 233.621094 620.273438 233.492188 620.023438 L 13.605469 192.246094 C 13.296875 191.660156 13.445312 191.226562 14.050781 190.9375 C 258.074219 75.882812 533.476562 68.34375 784.5 168.457031 C 785.566406 168.878906 787.460938 169.773438 790.183594 171.136719 C 790.707031 171.402344 790.847656 171.804688 790.601562 172.351562 L 593.320312 611.164062 C 593.078125 611.699219 592.683594 611.863281 592.132812 611.65625 C 576.203125 605.695312 560.007812 600.589844 543.546875 596.332031 C 543.027344 596.195312 542.5625 595.953125 542.15625 595.601562 C 541.746094 595.246094 541.4375 594.820312 541.222656 594.324219 Z M 541.222656 594.324219 " fill-opacity="1" fill-rule="nonzero"/></g></g></g></g><g clip-path="url(#e364e83844)"><g clip-path="url(#be319f51dc)"><g clip-path="url(#30a14bbf67)"><g clip-path="url(#8c412c4d91)"><path fill="#8fcaea" d="M 529.140625 696.945312 C 528.316406 698.78125 527.445312 700.597656 526.527344 702.394531 C 525.613281 704.1875 524.65625 705.960938 523.652344 707.707031 C 522.648438 709.457031 521.605469 711.179688 520.519531 712.875 C 519.433594 714.570312 518.304688 716.238281 517.136719 717.882812 C 515.96875 719.523438 514.757812 721.132812 513.511719 722.714844 C 512.265625 724.296875 510.980469 725.847656 509.65625 727.367188 C 508.332031 728.886719 506.972656 730.371094 505.574219 731.824219 C 504.179688 733.277344 502.746094 734.691406 501.28125 736.074219 C 499.8125 737.457031 498.316406 738.800781 496.785156 740.109375 C 495.25 741.417969 493.6875 742.6875 492.09375 743.917969 C 490.5 745.152344 488.875 746.34375 487.222656 747.496094 C 485.570312 748.644531 483.890625 749.757812 482.183594 750.824219 C 480.476562 751.894531 478.742188 752.921875 476.984375 753.90625 C 475.226562 754.890625 473.449219 755.832031 471.644531 756.726562 C 469.839844 757.625 468.015625 758.476562 466.171875 759.285156 C 464.324219 760.089844 462.460938 760.851562 460.578125 761.566406 C 458.695312 762.28125 456.796875 762.953125 454.878906 763.574219 C 452.964844 764.195312 451.035156 764.773438 449.089844 765.300781 C 447.148438 765.828125 445.191406 766.304688 443.226562 766.738281 C 441.257812 767.167969 439.28125 767.550781 437.296875 767.886719 C 435.308594 768.222656 433.316406 768.507812 431.316406 768.742188 C 429.316406 768.980469 427.3125 769.167969 425.304688 769.304688 C 423.292969 769.445312 421.28125 769.53125 419.269531 769.570312 C 417.253906 769.609375 415.242188 769.601562 413.230469 769.542969 C 411.21875 769.480469 409.207031 769.371094 407.199219 769.214844 C 405.191406 769.054688 403.191406 768.847656 401.191406 768.59375 C 399.195312 768.335938 397.207031 768.03125 395.222656 767.675781 C 393.242188 767.320312 391.269531 766.917969 389.304688 766.46875 C 387.34375 766.015625 385.394531 765.515625 383.457031 764.96875 C 381.519531 764.421875 379.59375 763.828125 377.6875 763.1875 C 375.777344 762.546875 373.886719 761.855469 372.011719 761.121094 C 370.136719 760.386719 368.28125 759.609375 366.445312 758.78125 C 364.609375 757.957031 362.792969 757.085938 361 756.171875 C 359.207031 755.257812 357.433594 754.296875 355.6875 753.296875 C 353.941406 752.296875 352.222656 751.25 350.527344 750.164062 C 348.832031 749.078125 347.164062 747.949219 345.523438 746.78125 C 343.882812 745.613281 342.273438 744.40625 340.691406 743.160156 C 339.109375 741.910156 337.5625 740.625 336.042969 739.300781 C 334.527344 737.980469 333.042969 736.617188 331.589844 735.222656 C 330.140625 733.828125 328.726562 732.394531 327.34375 730.929688 C 325.964844 729.460938 324.621094 727.964844 323.3125 726.433594 C 322.007812 724.898438 320.738281 723.335938 319.507812 721.742188 C 318.277344 720.148438 317.085938 718.523438 315.9375 716.871094 C 314.785156 715.21875 313.675781 713.539062 312.609375 711.832031 C 311.542969 710.121094 310.515625 708.390625 309.535156 706.632812 C 308.550781 704.875 307.609375 703.09375 306.714844 701.289062 C 305.820312 699.484375 304.96875 697.660156 304.164062 695.816406 C 303.359375 693.96875 302.597656 692.105469 301.882812 690.222656 C 301.167969 688.335938 300.5 686.4375 299.878906 684.523438 C 299.257812 682.605469 298.683594 680.675781 298.160156 678.730469 C 297.632812 676.785156 297.152344 674.832031 296.722656 672.863281 C 296.292969 670.894531 295.910156 668.917969 295.578125 666.929688 C 295.246094 664.945312 294.960938 662.949219 294.722656 660.949219 C 294.488281 658.949219 294.304688 656.945312 294.164062 654.933594 C 294.027344 652.925781 293.941406 650.914062 293.902344 648.898438 C 293.863281 646.882812 293.875 644.871094 293.9375 642.855469 C 293.996094 640.84375 294.105469 638.832031 294.265625 636.824219 C 294.425781 634.816406 294.632812 632.8125 294.890625 630.8125 C 295.148438 628.816406 295.453125 626.824219 295.808594 624.839844 C 296.164062 622.859375 296.570312 620.882812 297.019531 618.921875 C 297.472656 616.957031 297.972656 615.007812 298.519531 613.066406 C 299.066406 611.128906 299.664062 609.203125 300.304688 607.292969 C 300.949219 605.386719 301.636719 603.492188 302.371094 601.617188 C 303.105469 599.738281 303.886719 597.882812 304.714844 596.046875 C 305.539062 594.207031 306.410156 592.390625 307.324219 590.597656 C 308.242188 588.800781 309.199219 587.03125 310.203125 585.28125 C 311.203125 583.535156 312.25 581.8125 313.335938 580.117188 C 314.421875 578.417969 315.550781 576.75 316.71875 575.109375 C 317.886719 573.46875 319.09375 571.855469 320.34375 570.273438 C 321.589844 568.691406 322.875 567.140625 324.199219 565.621094 C 325.523438 564.105469 326.882812 562.617188 328.28125 561.167969 C 329.675781 559.714844 331.109375 558.296875 332.574219 556.914062 C 334.039062 555.535156 335.539062 554.1875 337.070312 552.878906 C 338.601562 551.570312 340.167969 550.300781 341.761719 549.070312 C 343.355469 547.839844 344.976562 546.648438 346.632812 545.496094 C 348.285156 544.34375 349.964844 543.234375 351.671875 542.164062 C 353.378906 541.09375 355.109375 540.066406 356.867188 539.085938 C 358.625 538.101562 360.40625 537.160156 362.210938 536.261719 C 364.015625 535.367188 365.839844 534.515625 367.683594 533.707031 C 369.53125 532.898438 371.394531 532.136719 373.277344 531.421875 C 375.160156 530.707031 377.058594 530.039062 378.972656 529.414062 C 380.890625 528.792969 382.820312 528.21875 384.761719 527.691406 C 386.707031 527.164062 388.660156 526.683594 390.628906 526.253906 C 392.597656 525.820312 394.574219 525.4375 396.558594 525.101562 C 398.542969 524.769531 400.539062 524.484375 402.539062 524.246094 C 404.539062 524.011719 406.542969 523.824219 408.550781 523.683594 C 410.558594 523.546875 412.570312 523.457031 414.585938 523.417969 C 416.597656 523.378906 418.613281 523.390625 420.625 523.449219 C 422.636719 523.507812 424.648438 523.617188 426.65625 523.777344 C 428.664062 523.933594 430.664062 524.140625 432.660156 524.398438 C 434.660156 524.65625 436.648438 524.960938 438.628906 525.316406 C 440.613281 525.667969 442.585938 526.070312 444.546875 526.523438 C 446.511719 526.972656 448.460938 527.472656 450.398438 528.019531 C 452.335938 528.566406 454.257812 529.160156 456.167969 529.804688 C 458.078125 530.445312 459.96875 531.132812 461.84375 531.867188 C 463.71875 532.601562 465.574219 533.382812 467.410156 534.207031 C 469.246094 535.035156 471.0625 535.902344 472.855469 536.820312 C 474.648438 537.734375 476.417969 538.691406 478.164062 539.695312 C 479.910156 540.695312 481.632812 541.738281 483.328125 542.824219 C 485.023438 543.910156 486.691406 545.039062 488.332031 546.207031 C 489.972656 547.375 491.582031 548.582031 493.164062 549.832031 C 494.742188 551.078125 496.292969 552.363281 497.808594 553.6875 C 499.328125 555.011719 500.8125 556.371094 502.261719 557.769531 C 503.714844 559.164062 505.128906 560.59375 506.507812 562.0625 C 507.890625 563.527344 509.234375 565.027344 510.539062 566.558594 C 511.847656 568.089844 513.117188 569.652344 514.347656 571.25 C 515.578125 572.84375 516.765625 574.464844 517.917969 576.121094 C 519.066406 577.773438 520.175781 579.453125 521.246094 581.160156 C 522.3125 582.867188 523.339844 584.601562 524.320312 586.359375 C 525.304688 588.117188 526.242188 589.898438 527.136719 591.699219 C 528.035156 593.503906 528.882812 595.328125 529.691406 597.175781 C 530.496094 599.019531 531.257812 600.886719 531.972656 602.769531 C 532.683594 604.652344 533.351562 606.550781 533.972656 608.46875 C 534.59375 610.382812 535.167969 612.316406 535.695312 614.257812 C 536.222656 616.203125 536.699219 618.160156 537.128906 620.128906 C 537.5625 622.09375 537.941406 624.070312 538.277344 626.058594 C 538.609375 628.046875 538.894531 630.039062 539.128906 632.039062 C 539.363281 634.039062 539.550781 636.046875 539.6875 638.054688 C 539.824219 640.066406 539.914062 642.078125 539.953125 644.09375 C 539.988281 646.105469 539.980469 648.121094 539.917969 650.132812 C 539.859375 652.148438 539.746094 654.160156 539.589844 656.167969 C 539.429688 658.175781 539.222656 660.179688 538.964844 662.175781 C 538.707031 664.175781 538.398438 666.164062 538.042969 668.148438 C 537.6875 670.132812 537.285156 672.105469 536.832031 674.070312 C 536.382812 676.03125 535.882812 677.984375 535.332031 679.921875 C 534.785156 681.863281 534.191406 683.785156 533.550781 685.695312 C 532.90625 687.605469 532.21875 689.5 531.484375 691.375 C 530.746094 693.25 529.96875 695.105469 529.140625 696.945312 Z M 529.140625 696.945312 " fill-opacity="1" fill-rule="nonzero"/></g></g></g></g></svg>