<?xml version="1.0" encoding="UTF-8" standalone="no"?>
<svg xmlns="http://www.w3.org/2000/svg" version="1.2" baseProfile="tiny" viewBox="0.00 0.00 384.00 386.00" width="384.00" height="386.00">
<path fill="#2383ad" d="
  M 370.12 309.15
  C 369.91 314.51 370.28 320.28 369.42 325.34
  C 359.90 380.86 293.33 404.35 251.61 365.62
  A 2.11 2.10 -46.1 0 0 248.68 365.68
  L 240.08 374.38
  A 0.95 0.95 0.0 0 1 238.81 374.46
  L 2.13 185.71
  A 1.76 1.76 0.0 0 1 1.87 183.23
  C 18.95 162.33 38.62 142.60 59.04 124.95
  C 136.96 57.63 233.70 14.61 336.69 3.93
  C 338.44 3.75 342.26 3.01 345.09 2.98
  C 349.57 2.93 354.77 2.04 357.75 1.98
  Q 364.92 1.82 369.25 1.39
  C 373.72 0.93 377.31 1.01 381.33 0.99
  A 1.20 1.19 0.0 0 1 382.53 2.18
  Q 382.51 128.23 382.56 254.21
  Q 382.56 254.40 382.93 260.76
  C 383.10 263.79 382.58 266.97 382.58 269.58
  Q 382.58 287.78 382.48 305.54
  A 1.22 1.21 -1.5 0 1 381.32 306.75
  L 372.02 307.23
  Q 370.19 307.32 370.12 309.15
  Z"
/>
<path fill="#c5eef9" d="
  M 348.01 262.62
  C 318.70 235.18 272.69 238.06 246.62 268.00
  Q 228.32 289.00 229.52 318.37
  A 2.02 2.01 -21.7 0 1 228.83 319.95
  Q 217.49 329.78 207.35 340.84
  A 0.56 0.55 40.4 0 1 206.59 340.90
  L 9.77 183.95
  Q 9.36 183.63 9.70 183.23
  C 101.52 75.98 231.40 13.30 372.75 7.22
  Q 373.65 7.18 376.04 7.28
  Q 376.50 7.30 376.50 7.77
  L 376.50 259.48
  Q 376.50 259.94 376.04 259.97
  Q 362.71 260.83 349.55 263.08
  A 1.83 1.81 61.4 0 1 348.01 262.62
  Z"
/>
<circle fill="#8fcaea" cx="299.86" cy="314.18" r="64.41"/>
</svg>
